<svg width="234" height="234" fill="none" xmlns="http://www.w3.org/2000/svg"><path fill-rule="evenodd" clip-rule="evenodd" d="M72.784 10.393C84.22 9.867 87.867 9.75 117 9.75c29.133 0 32.78.127 44.207.643 11.427.517 19.226 2.34 26.051 4.983a52.758 52.758 0 0 1 18.993 12.382 52.389 52.389 0 0 1 12.364 18.984c2.652 6.825 4.465 14.625 4.992 26.032.526 11.456.643 15.103.643 44.226 0 29.133-.127 32.779-.643 44.216-.517 11.408-2.34 19.208-4.992 26.033a52.621 52.621 0 0 1-12.364 19.002 52.584 52.584 0 0 1-18.993 12.364c-6.825 2.652-14.625 4.465-26.032 4.992-11.447.526-15.093.643-44.226.643s-32.78-.127-44.216-.643c-11.408-.517-19.208-2.34-26.033-4.992a52.628 52.628 0 0 1-19.002-12.364 52.557 52.557 0 0 1-12.373-18.993c-2.643-6.825-4.456-14.625-4.982-26.032C9.867 149.77 9.75 146.123 9.75 117c0-29.133.127-32.78.643-44.207.517-11.427 2.34-19.227 4.983-26.052A52.61 52.61 0 0 1 27.758 27.75a52.572 52.572 0 0 1 18.984-12.373c6.825-2.643 14.625-4.456 26.032-4.982h.01Zm87.555 19.305c-11.31-.516-14.703-.623-43.339-.623s-32.029.107-43.339.623c-10.462.478-16.136 2.224-19.919 3.696-5.002 1.95-8.58 4.26-12.334 8.014a33.266 33.266 0 0 0-8.014 12.334c-1.472 3.783-3.218 9.458-3.695 19.92-.517 11.31-.625 14.702-.625 43.338 0 28.636.108 32.029.624 43.339.478 10.461 2.224 16.136 3.696 19.919a33.289 33.289 0 0 0 8.014 12.334 33.288 33.288 0 0 0 12.334 8.014c3.783 1.473 9.458 3.218 19.92 3.696 11.31.516 14.692.623 43.338.623 28.645 0 32.029-.107 43.339-.623 10.461-.478 16.136-2.223 19.919-3.696 5.002-1.95 8.58-4.26 12.334-8.014a33.285 33.285 0 0 0 8.014-12.334c1.473-3.783 3.218-9.458 3.696-19.919.516-11.31.623-14.703.623-43.339s-.107-32.029-.623-43.339c-.478-10.462-2.223-16.136-3.696-19.919-1.95-5.002-4.26-8.58-8.014-12.334a33.275 33.275 0 0 0-12.334-8.014c-3.783-1.472-9.458-3.218-19.919-3.695Zm-57.038 120.364a35.77 35.77 0 0 0 43.491-13.15 35.771 35.771 0 0 0-4.491-45.213 35.778 35.778 0 0 0-43.691-5.381 35.784 35.784 0 0 0 4.691 63.744ZM78.019 78.019a55.127 55.127 0 1 1 77.962 77.962 55.127 55.127 0 0 1-77.962-77.962Zm106.334-7.936a13.02 13.02 0 0 0 2.986-4.232 13.018 13.018 0 0 0 1.103-5.06 13.026 13.026 0 0 0-8.133-12.27 13.038 13.038 0 0 0-14.384 3.135 13.034 13.034 0 0 0 18.428 18.427Z" fill="url(#a)"/><defs><linearGradient id="a" x1="117" y1="9.75" x2="117" y2="224.25" gradientUnits="userSpaceOnUse"><stop offset="0" stop-color="#E5476D"/><stop offset="0" stop-color="#E7476B"/><stop offset="0" stop-color="#505ACB"/><stop offset="1" stop-color="#C838AA"/></linearGradient></defs></svg>