<svg width="132" height="132" fill="none" xmlns="http://www.w3.org/2000/svg"><path fill-rule="evenodd" clip-rule="evenodd" d="M41.057 5.863C47.51 5.566 49.566 5.5 66 5.5s18.491.072 24.937.363c6.446.291 10.846 1.32 14.696 2.81a29.77 29.77 0 0 1 10.714 6.986 29.55 29.55 0 0 1 6.974 10.708c1.496 3.85 2.519 8.25 2.816 14.685.297 6.462.363 8.52.363 24.948 0 16.434-.071 18.491-.363 24.942-.291 6.436-1.32 10.835-2.816 14.685a29.677 29.677 0 0 1-6.974 10.72 29.67 29.67 0 0 1-10.714 6.974c-3.85 1.496-8.25 2.519-14.685 2.816-6.457.297-8.514.363-24.948.363s-18.491-.071-24.943-.363c-6.434-.291-10.835-1.32-14.685-2.816a29.68 29.68 0 0 1-10.719-6.974 29.656 29.656 0 0 1-6.98-10.714c-1.49-3.85-2.513-8.25-2.81-14.685C5.566 84.486 5.5 82.428 5.5 66c0-16.434.072-18.491.363-24.937.291-6.446 1.32-10.846 2.81-14.696a29.678 29.678 0 0 1 6.986-10.714 29.656 29.656 0 0 1 10.708-6.98c3.85-1.49 8.25-2.513 14.685-2.81h.005Zm49.39 10.89c-6.38-.291-8.294-.352-24.447-.352-16.154 0-18.068.06-24.447.352-5.902.27-9.103 1.254-11.237 2.084-2.822 1.1-4.84 2.404-6.957 4.521a18.766 18.766 0 0 0-4.522 6.958c-.83 2.134-1.814 5.335-2.084 11.237-.291 6.38-.352 8.294-.352 24.447s.06 18.067.352 24.448c.27 5.901 1.254 9.102 2.084 11.236a18.782 18.782 0 0 0 4.521 6.958 18.786 18.786 0 0 0 6.958 4.521c2.134.83 5.335 1.815 11.237 2.084 6.38.292 8.288.352 24.447.352s18.067-.06 24.448-.352c5.901-.269 9.102-1.254 11.236-2.084 2.822-1.1 4.84-2.404 6.958-4.521a18.788 18.788 0 0 0 4.521-6.958c.83-2.134 1.815-5.335 2.084-11.236.292-6.38.352-8.294.352-24.448s-.06-18.068-.352-24.447c-.269-5.902-1.254-9.103-2.084-11.237-1.1-2.822-2.404-4.84-4.521-6.957a18.778 18.778 0 0 0-6.958-4.522c-2.134-.83-5.335-1.814-11.236-2.084ZM58.273 84.65a20.18 20.18 0 0 0 22-32.923 20.185 20.185 0 1 0-22 32.923ZM44.011 44.011a31.098 31.098 0 1 1 43.98 43.98 31.098 31.098 0 0 1-43.98-43.98Zm59.983-4.477a7.36 7.36 0 0 0 2.307-5.242 7.356 7.356 0 0 0-10.315-6.838 7.355 7.355 0 0 0 2.855 14.084 7.354 7.354 0 0 0 5.153-2.004Z" fill="#fff"/></svg>