<svg width="55" height="55" fill="none" xmlns="http://www.w3.org/2000/svg"><path d="M8.75 8.774h38.5v37.94H8.75V8.775ZM7 48.488h42V7H7v41.488Zm28.316-24.467c-1.384 0-1.856.71-1.856 1.295 0 .638.315 1.082 2.17 2.056 2.748 1.348 3.6 2.641 3.6 4.54 0 2.837-2.134 4.36-5.021 4.36a7.53 7.53 0 0 1-3.589-.76c-.123-.052-.139-.14-.139-.283v-2.61c0-.177.087-.23.21-.14a6.434 6.434 0 0 0 3.518 1.045c1.383 0 1.96-.586 1.96-1.383 0-.639-.402-1.205-2.17-2.128-2.486-1.205-3.518-2.432-3.518-4.468 0-2.287 1.767-4.184 4.83-4.184a7.953 7.953 0 0 1 3.132.497.39.39 0 0 1 .175.354v2.432c0 .141-.087.23-.262.178a5.852 5.852 0 0 0-3.045-.798l.005-.003Zm-15.052 2.11c.402.034.718.034 1.418.034 2.048 0 3.972-.726 3.972-3.545 0-2.253-1.383-3.386-3.71-3.386-.7 0-1.364.035-1.68.053v6.843Zm-3.115-9.423c0-.125.244-.213.386-.213 1.504-.062 3.009-.091 4.514-.088 4.849 0 6.739 2.695 6.739 6.135 0 4.503-3.221 6.436-7.175 6.436-.665 0-.892-.035-1.365-.035v6.808c0 .142-.053.213-.21.213H17.36c-.139 0-.21-.053-.21-.212V16.715l-.001-.008Z" fill="#38A7F2"/></svg>