<svg width="101" height="35" fill="none" xmlns="http://www.w3.org/2000/svg"><rect x="4" y="4" width="97" height="27" rx="13.5" fill="#62CED6" fill-opacity=".5"/><circle cx="17.5" cy="17.5" r="17.5" fill="#35C2C9" fill-opacity=".5"/><circle cx="17.5" cy="17.5" r="9.046" fill="#35C2C9" fill-opacity=".7"/><path d="M45.538 15.617a1.357 1.357 0 0 0-.587-1.014c-.341-.242-.785-.363-1.332-.363-.385 0-.715.058-.99.174a1.464 1.464 0 0 0-.631.472c-.146.2-.22.426-.224.682 0 .212.048.396.144.551.1.156.234.289.403.398.17.106.356.196.562.268.205.073.412.135.621.184l.955.24c.384.089.754.21 1.108.362.358.152.678.345.96.577.285.232.51.512.676.84.166.328.249.713.249 1.153 0 .597-.153 1.122-.458 1.576-.305.451-.745.804-1.322 1.06-.573.251-1.268.377-2.083.377-.792 0-1.48-.122-2.063-.368-.58-.245-1.035-.603-1.363-1.074-.324-.47-.5-1.044-.527-1.72h1.815c.026.355.136.65.328.885.192.236.443.411.75.527.312.116.66.174 1.045.174.4 0 .752-.06 1.054-.179.305-.123.543-.291.716-.507.172-.219.26-.474.263-.766a.973.973 0 0 0-.233-.656 1.712 1.712 0 0 0-.642-.437 6.178 6.178 0 0 0-.954-.319l-1.159-.298c-.838-.215-1.501-.542-1.988-.98-.484-.44-.726-1.025-.726-1.754 0-.6.162-1.125.487-1.576.328-.45.774-.8 1.337-1.05.564-.251 1.202-.377 1.915-.377.722 0 1.355.126 1.899.378.547.248.976.595 1.287 1.039.312.44.473.948.483 1.521h-1.775Zm6.81 7.532c-.746 0-1.393-.164-1.94-.492a3.343 3.343 0 0 1-1.272-1.377c-.299-.59-.448-1.28-.448-2.068 0-.79.15-1.48.448-2.073a3.335 3.335 0 0 1 1.273-1.383c.546-.328 1.193-.492 1.938-.492.746 0 1.392.164 1.94.492.546.328.969.79 1.267 1.383.302.593.453 1.284.453 2.073 0 .788-.151 1.478-.453 2.068a3.31 3.31 0 0 1-1.268 1.377c-.547.328-1.193.492-1.939.492Zm.01-1.442c.404 0 .742-.11 1.014-.333.271-.225.474-.527.606-.904a3.71 3.71 0 0 0 .204-1.263c0-.468-.068-.89-.204-1.268a2.007 2.007 0 0 0-.606-.91c-.272-.225-.61-.338-1.015-.338-.414 0-.759.113-1.034.338a2.042 2.042 0 0 0-.611.91 3.81 3.81 0 0 0-.199 1.268c0 .464.066.885.199 1.262.136.378.34.68.611.905.275.222.62.333 1.034.333Zm8.507 1.442c-.762 0-1.417-.167-1.964-.502a3.352 3.352 0 0 1-1.258-1.387c-.291-.593-.437-1.276-.437-2.048 0-.776.15-1.46.447-2.054a3.34 3.34 0 0 1 1.263-1.392c.547-.334 1.193-.502 1.94-.502.619 0 1.167.115 1.645.343.48.226.863.546 1.148.96.285.41.448.891.487 1.442h-1.72a1.644 1.644 0 0 0-.497-.92c-.258-.249-.605-.373-1.039-.373-.368 0-.691.1-.97.298-.278.196-.495.477-.65.845-.153.368-.23.81-.23 1.323 0 .52.077.968.23 1.342.152.371.366.658.64.86.279.2.605.299.98.299.265 0 .502-.05.71-.15.213-.102.39-.25.533-.442.142-.192.24-.426.293-.701h1.72a2.999 2.999 0 0 1-.477 1.437 2.83 2.83 0 0 1-1.123.974c-.474.232-1.031.348-1.67.348Zm4.75-.149v-7.636h1.799V23h-1.8Zm.904-8.72a1.05 1.05 0 0 1-.736-.284.913.913 0 0 1-.308-.69c0-.272.103-.503.308-.692a1.04 1.04 0 0 1 .736-.288c.288 0 .534.096.736.288.205.19.308.42.308.691a.913.913 0 0 1-.308.691 1.038 1.038 0 0 1-.736.284Zm4.943 8.874c-.484 0-.92-.086-1.308-.258a2.134 2.134 0 0 1-.914-.776c-.222-.341-.333-.762-.333-1.263 0-.43.08-.787.238-1.069a1.86 1.86 0 0 1 .651-.676 3.32 3.32 0 0 1 .93-.383c.348-.09.708-.154 1.079-.194.447-.046.81-.087 1.089-.124.278-.04.48-.1.606-.179.13-.083.194-.21.194-.383v-.03c0-.374-.11-.664-.333-.87-.222-.205-.542-.308-.96-.308-.44 0-.79.097-1.048.289a1.43 1.43 0 0 0-.517.68l-1.68-.238a2.67 2.67 0 0 1 .655-1.163c.305-.315.678-.55 1.119-.706.44-.16.928-.239 1.462-.239.368 0 .734.043 1.098.13a3.09 3.09 0 0 1 1 .427c.301.196.543.462.726.8.185.338.278.761.278 1.268V23h-1.73v-1.049h-.06c-.11.212-.263.411-.462.597a2.23 2.23 0 0 1-.74.442 2.98 2.98 0 0 1-1.04.164Zm.467-1.322c.362 0 .675-.072.94-.214.265-.146.469-.338.612-.577a1.47 1.47 0 0 0 .218-.78v-.9a.846.846 0 0 1-.288.13 4.337 4.337 0 0 1-.448.104c-.165.03-.33.056-.492.079l-.422.06a3.142 3.142 0 0 0-.721.179c-.212.082-.38.198-.502.348-.123.146-.184.334-.184.566 0 .332.12.582.363.751.242.17.55.254.924.254Zm7.174-9.014V23h-1.8V12.818h1.8ZM84.483 23h-3.45V12.818h3.52c1.011 0 1.88.204 2.606.612a4.085 4.085 0 0 1 1.68 1.745c.391.759.587 1.667.587 2.724 0 1.06-.198 1.972-.592 2.735a4.09 4.09 0 0 1-1.695 1.755c-.736.407-1.621.611-2.655.611Zm-1.605-1.596h1.516c.71 0 1.301-.13 1.775-.388a2.48 2.48 0 0 0 1.07-1.168c.238-.52.357-1.17.357-1.949 0-.779-.12-1.425-.358-1.939a2.441 2.441 0 0 0-1.059-1.158c-.464-.259-1.04-.388-1.73-.388h-1.571v6.99Z" fill="#284669"/></svg>