<svg width="55" height="55" fill="none" xmlns="http://www.w3.org/2000/svg"><g clip-path="url(#a)"><path d="m46.895 32.64-10.512 3.602v4.559l10.511 4.203V32.64Z" fill="#1A6CA2"/><path d="M14.07 47.563a2.416 2.416 0 0 1-2.414-2.415V25.473a2.416 2.416 0 0 1 2.414-2.414h23.672a2.416 2.416 0 0 1 2.414 2.414v19.675a2.416 2.416 0 0 1-2.414 2.414H14.07Z" fill="#38A7F2"/><path d="M36.629 61.652a1.23 1.23 0 0 1 1.227 1.227v18.316a1.23 1.23 0 0 1-1.227 1.227h-22.04c-.675 0-1.226-.55-1.226-1.227V62.88a1.23 1.23 0 0 1 1.227-1.227h22.039Zm0-2.043h-22.04a3.27 3.27 0 0 0-3.269 3.27v18.316a3.27 3.27 0 0 0 3.27 3.27h22.035a3.27 3.27 0 0 0 3.27-3.27V62.88a3.265 3.265 0 0 0-3.266-3.27Zm11.793-28.086c.875 0 1.586.711 1.586 1.586v11.426a1.587 1.587 0 0 1-3.172 0V33.11c0-.875.71-1.586 1.586-1.586ZM34.613 49.266H17.2a1.46 1.46 0 0 1 0-2.922h17.418a1.461 1.461 0 1 1-.004 2.922ZM11.391 28.379h14.558a2.924 2.924 0 0 1 2.926 2.926v7.672a2.924 2.924 0 0 1-2.926 2.925H11.391a2.924 2.924 0 0 1-2.926-2.925v-7.672a2.924 2.924 0 0 1 2.926-2.926Z" fill="#C439AB"/><path d="M34.148 31.145h3.5c1.383 0 2.508 1.027 2.508 2.296V45.27c0 1.27-1.12 2.297-2.508 2.297h-3.5c-1.382 0-2.507-1.027-2.507-2.297V33.442c0-1.27 1.12-2.297 2.507-2.297Z" fill="#1A6CA2"/><path d="M35.836 44.258a1.234 1.234 0 1 0 0-2.469 1.234 1.234 0 0 0 0 2.469Z" fill="#ED6C30"/><path d="M35.836 40.164a1.234 1.234 0 1 0 0-2.469 1.234 1.234 0 0 0 0 2.47Z" fill="#40C0E7"/><path d="M39.914 5.172c-6.902 0-12.5 5.598-12.5 12.5s5.598 12.5 12.5 12.5 12.5-5.598 12.5-12.5-5.598-12.5-12.5-12.5Zm0 22.035a9.537 9.537 0 0 1-9.539-9.539c0-5.27 4.273-9.535 9.54-9.535 5.265 0 9.538 4.27 9.538 9.539 0 5.27-4.27 9.535-9.539 9.535Z" fill="#1A6CA2"/><path d="M39.914 27.207a9.54 9.54 0 1 0 0-19.078 9.54 9.54 0 0 0 0 19.078Z" fill="#fff"/><path d="M39.914 13.355a4.314 4.314 0 1 0 0 8.629 4.314 4.314 0 1 0 0-8.629Zm0 6.243a1.927 1.927 0 0 1-1.926-1.926 1.927 1.927 0 1 1 1.926 1.926Z" fill="#1A6CA2"/><path d="M39.914 19.594a1.926 1.926 0 1 0 0-3.852 1.926 1.926 0 0 0 0 3.852Z" fill="#fff"/><path d="m37.988 6.824 1.211 7.707h1.543l1.102-7.707h-3.856Zm11.625 5.637-6.937 3.574.484 1.461 7.664-1.375-1.21-3.66ZM47.86 25.324l-5.535-5.504-1.242.914 3.668 6.868 3.11-2.278Zm-12.79 2.281 3.54-6.953-1.247-.902-5.414 5.594 3.121 2.261ZM28.973 16.16l7.707 1.219.472-1.465-6.992-3.422-1.187 3.668Zm-15.367-4.277c-5.579 0-10.102 4.523-10.102 10.101 0 5.578 4.523 10.102 10.101 10.102 5.579 0 10.102-4.523 10.102-10.102 0-5.578-4.52-10.101-10.102-10.101Zm0 17.812a7.712 7.712 0 0 1 0-15.422 7.712 7.712 0 0 1 0 15.422Z" fill="#1A6CA2"/><path d="M13.605 29.695a7.71 7.71 0 1 0 0-15.422 7.71 7.71 0 0 0 0 15.422Z" fill="#fff"/><path d="M13.605 18.496a3.49 3.49 0 0 0 0 6.977 3.49 3.49 0 0 0 0-6.977Zm0 5.047c-.859 0-1.558-.7-1.558-1.559s.7-1.558 1.558-1.558a1.558 1.558 0 1 1 0 3.117Z" fill="#1A6CA2"/><path d="M13.605 23.543a1.559 1.559 0 1 0 0-3.117 1.559 1.559 0 0 0 0 3.117Z" fill="#fff"/><path d="m12.05 13.219.977 6.23h1.246l.891-6.23h-3.113Zm9.395 4.554-5.61 2.891.395 1.18 6.192-1.11-.977-2.96Zm-1.418 10.399-4.472-4.45-1.004.739 2.965 5.55 2.511-1.84ZM9.691 30.016l2.86-5.621-1.008-.73-4.375 4.523 2.523 1.828Zm-4.93-9.25 6.231.984.383-1.184-5.652-2.765-.961 2.965Z" fill="#1A6CA2"/></g><defs><clipPath id="a"><path fill="#fff" transform="translate(3 2)" d="M0 0h50v50H0z"/></clipPath></defs></svg>