<svg width="55" height="55" fill="none" xmlns="http://www.w3.org/2000/svg"><path d="M14.61 33.086a7.305 7.305 0 1 0 7.304 7.305 7.326 7.326 0 0 0-7.305-7.305Zm0 12.031a4.726 4.726 0 1 1 4.726-4.726 4.748 4.748 0 0 1-4.727 4.726ZM7.69 23.16l3.374-3.394L7.69 16.37a1.276 1.276 0 1 1 1.805-1.805l3.395 3.373 3.394-3.373a1.276 1.276 0 1 1 1.805 1.805l-3.373 3.395 3.373 3.394a1.276 1.276 0 1 1-1.805 1.805l-3.394-3.373-3.395 3.373a1.276 1.276 0 1 1-1.805-1.805Zm39.62 20.625a1.276 1.276 0 1 1-1.805 1.805l-3.395-3.373-3.394 3.373a1.276 1.276 0 0 1-1.805-1.805l3.373-3.394-3.373-3.395a1.278 1.278 0 0 1 .414-2.081 1.276 1.276 0 0 1 1.39.276l3.395 3.373 3.395-3.373a1.276 1.276 0 1 1 1.805 1.805l-3.373 3.395 3.373 3.394Zm-9.82-19.658c-1.289 4.662-5.263 8.68-9.668 9.775l-.322.043a1.289 1.289 0 0 1-.322-2.535c3.502-.88 6.81-4.232 7.841-7.97.71-2.579.731-6.489-3.265-10.506l-1.246-1.225v5.479a1.29 1.29 0 1 1-2.578 0V8.594a1.29 1.29 0 0 1 1.289-1.29h8.593a1.289 1.289 0 1 1 0 2.579h-5.478l1.225 1.246c3.824 3.803 5.22 8.422 3.931 12.998Z" fill="#3AA8F2"/></svg>