<svg width="55" height="55" fill="none" xmlns="http://www.w3.org/2000/svg"><g clip-path="url(#a)"><path d="m48.304 10.619-9.03-4.348a2.73 2.73 0 0 0-3.115.53L6.596 33.754a1.826 1.826 0 0 0 .002 2.7l2.415 2.196a1.826 1.826 0 0 0 2.332.104l35.6-27.008c1.195-.906 2.91-.054 2.91 1.445v-.105a2.739 2.739 0 0 0-1.55-2.468Z" fill="#0065A9"/><path d="m48.304 44.984-9.03 4.348a2.73 2.73 0 0 1-3.115-.53L6.596 21.849a1.826 1.826 0 0 1 .002-2.7l2.415-2.196a1.826 1.826 0 0 1 2.332-.104l35.6 27.008c1.195.906 2.91.054 2.91-1.445v.105a2.74 2.74 0 0 1-1.55 2.468Z" fill="#007ACC"/><path d="M39.245 49.336a2.731 2.731 0 0 1-3.115-.53c1.011 1.01 2.74.294 2.74-1.135V7.938c0-1.43-1.729-2.146-2.74-1.135a2.731 2.731 0 0 1 3.115-.53l9.03 4.342a2.74 2.74 0 0 1 1.552 2.469v29.441a2.74 2.74 0 0 1-1.552 2.469l-9.03 4.342Z" fill="#1F9CF0"/><path d="M37.08 49.416a2.73 2.73 0 0 0 2.174-.083l9.024-4.342a2.74 2.74 0 0 0 1.55-2.469V13.081a2.74 2.74 0 0 0-1.55-2.469L39.254 6.27a2.73 2.73 0 0 0-3.113.53L18.866 22.56l-7.525-5.712a1.824 1.824 0 0 0-2.33.104l-2.414 2.195a1.827 1.827 0 0 0-.002 2.701l6.526 5.954-6.526 5.953a1.827 1.827 0 0 0 .002 2.7l2.414 2.196a1.824 1.824 0 0 0 2.33.103l7.525-5.711 17.275 15.76c.267.267.587.476.939.614Zm1.798-31.564-13.107 9.95 13.107 9.949v-19.9Z" fill="url(#b)" fill-opacity=".25"/></g><defs><linearGradient id="b" x1="27.914" y1="6" x2="27.914" y2="49.603" gradientUnits="userSpaceOnUse"><stop stop-color="#fff"/><stop offset="1" stop-color="#fff" stop-opacity="0"/></linearGradient><clipPath id="a"><path fill="#fff" transform="translate(6 6)" d="M0 0h44v43.656H0z"/></clipPath></defs></svg>