<svg width="101" height="35" viewBox="0 0 101 35" fill="none" xmlns="http://www.w3.org/2000/svg">
<rect x="4" y="4" width="97" height="27" rx="13.5" fill="#62CED6" fill-opacity="0.5"/>
<circle cx="17.5" cy="17.5" r="17.5" fill="#35C2C9" fill-opacity="0.5"/>
<circle cx="17.5" cy="17.5" r="9.04639" fill="#35C2C9" fill-opacity="0.7"/>
<path d="M45.5376 15.6172C45.4912 15.183 45.2957 14.8449 44.951 14.603C44.6096 14.361 44.1655 14.2401 43.6186 14.2401C43.2341 14.2401 42.9044 14.2981 42.6293 14.4141C42.3542 14.5301 42.1437 14.6875 41.9979 14.8864C41.852 15.0852 41.7775 15.3123 41.7741 15.5675C41.7741 15.7796 41.8222 15.9635 41.9183 16.1193C42.0178 16.2751 42.152 16.4077 42.321 16.517C42.4901 16.6231 42.6773 16.7126 42.8828 16.7855C43.0883 16.8584 43.2955 16.9197 43.5043 16.9695L44.4588 17.2081C44.8433 17.2976 45.2128 17.4186 45.5675 17.571C45.9254 17.7235 46.2453 17.9157 46.527 18.1477C46.812 18.3797 47.0374 18.6598 47.2031 18.9879C47.3688 19.3161 47.4517 19.7005 47.4517 20.1413C47.4517 20.7379 47.2992 21.2633 46.9943 21.7173C46.6894 22.1681 46.2486 22.5211 45.6719 22.7763C45.0985 23.0282 44.4041 23.1541 43.5888 23.1541C42.7966 23.1541 42.1089 23.0315 41.5256 22.7862C40.9455 22.541 40.4915 22.183 40.1634 21.7124C39.8385 21.2417 39.6629 20.6683 39.6364 19.9922H41.451C41.4775 20.3468 41.5869 20.6418 41.7791 20.8771C41.9714 21.1125 42.2216 21.2881 42.5298 21.4041C42.8414 21.5201 43.1894 21.5781 43.5739 21.5781C43.9749 21.5781 44.3262 21.5185 44.6278 21.3991C44.9328 21.2765 45.1714 21.1075 45.3438 20.892C45.5161 20.6733 45.6039 20.4181 45.6072 20.1264C45.6039 19.8613 45.526 19.6425 45.3736 19.4702C45.2211 19.2945 45.0073 19.1487 44.7322 19.0327C44.4605 18.9134 44.1423 18.8073 43.7777 18.7145L42.6193 18.4162C41.7808 18.2008 41.1179 17.8743 40.6307 17.4368C40.1468 16.996 39.9048 16.411 39.9048 15.6818C39.9048 15.0819 40.0672 14.5566 40.392 14.1058C40.7202 13.6551 41.166 13.3054 41.7294 13.0568C42.2929 12.8049 42.9309 12.679 43.6435 12.679C44.366 12.679 44.9991 12.8049 45.5426 13.0568C46.0895 13.3054 46.5187 13.6518 46.8303 14.0959C47.1418 14.5367 47.3026 15.0438 47.3125 15.6172H45.5376ZM52.3475 23.1491C51.6017 23.1491 50.9554 22.9851 50.4086 22.657C49.8617 22.3288 49.4374 21.8698 49.1358 21.2798C48.8375 20.6899 48.6884 20.0005 48.6884 19.2116C48.6884 18.4228 48.8375 17.7318 49.1358 17.1385C49.4374 16.5452 49.8617 16.0845 50.4086 15.7564C50.9554 15.4283 51.6017 15.2642 52.3475 15.2642C53.0932 15.2642 53.7395 15.4283 54.2864 15.7564C54.8333 16.0845 55.2559 16.5452 55.5542 17.1385C55.8558 17.7318 56.0066 18.4228 56.0066 19.2116C56.0066 20.0005 55.8558 20.6899 55.5542 21.2798C55.2559 21.8698 54.8333 22.3288 54.2864 22.657C53.7395 22.9851 53.0932 23.1491 52.3475 23.1491ZM52.3574 21.7074C52.7618 21.7074 53.0998 21.5964 53.3716 21.3743C53.6434 21.1489 53.8456 20.8473 53.9782 20.4695C54.1141 20.0916 54.182 19.6707 54.182 19.2067C54.182 18.7393 54.1141 18.3168 53.9782 17.9389C53.8456 17.5578 53.6434 17.2545 53.3716 17.0291C53.0998 16.8037 52.7618 16.6911 52.3574 16.6911C51.9431 16.6911 51.5984 16.8037 51.3233 17.0291C51.0516 17.2545 50.8477 17.5578 50.7118 17.9389C50.5792 18.3168 50.513 18.7393 50.513 19.2067C50.513 19.6707 50.5792 20.0916 50.7118 20.4695C50.8477 20.8473 51.0516 21.1489 51.3233 21.3743C51.5984 21.5964 51.9431 21.7074 52.3574 21.7074ZM60.8651 23.1491C60.1027 23.1491 59.4482 22.9818 58.9013 22.647C58.3577 22.3123 57.9384 21.8499 57.6435 21.2599C57.3518 20.6667 57.206 19.9839 57.206 19.2116C57.206 18.4361 57.3551 17.7517 57.6534 17.1584C57.9517 16.5618 58.3726 16.0978 58.9162 15.7663C59.4631 15.4316 60.1094 15.2642 60.8551 15.2642C61.4749 15.2642 62.0234 15.3786 62.5007 15.6072C62.9813 15.8326 63.3641 16.1525 63.6491 16.5668C63.9342 16.9777 64.0966 17.4583 64.1364 18.0085H62.4162C62.3466 17.6406 62.1809 17.334 61.919 17.0888C61.6605 16.8402 61.3142 16.7159 60.88 16.7159C60.5121 16.7159 60.1889 16.8153 59.9105 17.0142C59.6321 17.2098 59.415 17.4915 59.2592 17.8594C59.1068 18.2273 59.0305 18.6681 59.0305 19.1818C59.0305 19.7022 59.1068 20.1496 59.2592 20.5241C59.4117 20.8954 59.6255 21.1821 59.9006 21.3842C60.179 21.5831 60.5054 21.6825 60.88 21.6825C61.1451 21.6825 61.3821 21.6328 61.5909 21.5334C61.803 21.4306 61.9804 21.2831 62.1229 21.0909C62.2654 20.8987 62.3632 20.665 62.4162 20.3899H64.1364C64.0933 20.9302 63.9342 21.4091 63.6591 21.8267C63.384 22.241 63.0095 22.5658 62.5355 22.8011C62.0616 23.0331 61.5047 23.1491 60.8651 23.1491ZM65.6142 23V15.3636H67.4139V23H65.6142ZM66.519 14.2798C66.234 14.2798 65.9887 14.1854 65.7832 13.9964C65.5777 13.8042 65.475 13.5739 65.475 13.3054C65.475 13.0336 65.5777 12.8033 65.7832 12.6143C65.9887 12.4221 66.234 12.326 66.519 12.326C66.8074 12.326 67.0526 12.4221 67.2548 12.6143C67.4603 12.8033 67.563 13.0336 67.563 13.3054C67.563 13.5739 67.4603 13.8042 67.2548 13.9964C67.0526 14.1854 66.8074 14.2798 66.519 14.2798ZM71.462 23.1541C70.9781 23.1541 70.5423 23.0679 70.1545 22.8956C69.77 22.7199 69.4651 22.4614 69.2397 22.12C69.0176 21.7786 68.9066 21.3577 68.9066 20.8572C68.9066 20.4264 68.9862 20.0701 69.1452 19.7884C69.3043 19.5066 69.5214 19.2812 69.7965 19.1122C70.0716 18.9432 70.3815 18.8156 70.7262 18.7294C71.0742 18.6399 71.4338 18.5753 71.805 18.5355C72.2525 18.4891 72.6154 18.4477 72.8938 18.4112C73.1722 18.3714 73.3744 18.3118 73.5004 18.2322C73.6296 18.1494 73.6942 18.0218 73.6942 17.8494V17.8196C73.6942 17.4451 73.5832 17.1551 73.3612 16.9496C73.1391 16.7441 72.8192 16.6413 72.4016 16.6413C71.9608 16.6413 71.6112 16.7375 71.3526 16.9297C71.0974 17.1219 70.9251 17.349 70.8356 17.6108L69.1552 17.3722C69.2878 16.9081 69.5065 16.5204 69.8114 16.2088C70.1164 15.8939 70.4892 15.6586 70.93 15.5028C71.3709 15.3438 71.8581 15.2642 72.3917 15.2642C72.7596 15.2642 73.1258 15.3073 73.4904 15.3935C73.855 15.4796 74.1881 15.6222 74.4897 15.821C74.7913 16.0166 75.0333 16.2834 75.2156 16.6214C75.4012 16.9595 75.494 17.3821 75.494 17.8892V23H73.7638V21.951H73.7042C73.5948 22.1631 73.4407 22.362 73.2418 22.5476C73.0463 22.7299 72.7994 22.8774 72.5011 22.9901C72.2061 23.0994 71.8597 23.1541 71.462 23.1541ZM71.9293 21.8317C72.2906 21.8317 72.6038 21.7604 72.869 21.6179C73.1341 21.4721 73.3379 21.2798 73.4805 21.0412C73.6263 20.8026 73.6992 20.5424 73.6992 20.2607V19.3608C73.6429 19.4072 73.5468 19.4503 73.4109 19.4901C73.2783 19.5298 73.1291 19.5646 72.9634 19.5945C72.7977 19.6243 72.6336 19.6508 72.4712 19.674C72.3088 19.6972 72.168 19.7171 72.0487 19.7337C71.7802 19.7701 71.5399 19.8298 71.3278 19.9126C71.1156 19.9955 70.9483 20.1115 70.8256 20.2607C70.703 20.4065 70.6417 20.5954 70.6417 20.8274C70.6417 21.1589 70.7627 21.4091 71.0046 21.5781C71.2466 21.7472 71.5548 21.8317 71.9293 21.8317ZM79.1033 12.8182V23H77.3036V12.8182H79.1033ZM84.4838 23H81.0336V12.8182H84.5534C85.5643 12.8182 86.4327 13.022 87.1586 13.4297C87.8877 13.834 88.4479 14.4157 88.839 15.1747C89.2301 15.9337 89.4256 16.8419 89.4256 17.8991C89.4256 18.9598 89.2284 19.8712 88.834 20.6335C88.4429 21.3958 87.8778 21.9808 87.1387 22.3885C86.4029 22.7962 85.5179 23 84.4838 23ZM82.878 21.4041H84.3944C85.1036 21.4041 85.6953 21.2749 86.1692 21.0163C86.6432 20.7545 86.9995 20.3651 87.2381 19.848C87.4767 19.3277 87.5961 18.678 87.5961 17.8991C87.5961 17.1203 87.4767 16.474 87.2381 15.9602C86.9995 15.4432 86.6465 15.0571 86.1792 14.8018C85.7151 14.5433 85.1384 14.4141 84.449 14.4141H82.878V21.4041Z" fill="#284669"/>
</svg>
