<svg width="132" height="132" viewBox="0 0 132 132" fill="none" xmlns="http://www.w3.org/2000/svg">
<path fill-rule="evenodd" clip-rule="evenodd" d="M41.0575 5.863C47.509 5.566 49.566 5.5 66 5.5C82.434 5.5 84.491 5.5715 90.937 5.863C97.383 6.1545 101.783 7.183 105.633 8.6735C109.664 10.197 113.322 12.5785 116.347 15.6585C119.427 18.678 121.803 22.33 123.321 26.367C124.817 30.217 125.84 34.617 126.137 41.052C126.434 47.5145 126.5 49.5715 126.5 66C126.5 82.434 126.429 84.491 126.137 90.9425C125.846 97.3775 124.817 101.777 123.321 105.627C121.803 109.665 119.423 113.323 116.347 116.347C113.322 119.427 109.664 121.803 105.633 123.321C101.783 124.817 97.383 125.84 90.948 126.137C84.491 126.434 82.434 126.5 66 126.5C49.566 126.5 47.509 126.429 41.0575 126.137C34.6225 125.846 30.2225 124.817 26.3725 123.321C22.3351 121.803 18.677 119.423 15.653 116.347C12.5751 113.326 10.1932 109.669 8.6735 105.633C7.183 101.783 6.16 97.383 5.863 90.948C5.566 84.4855 5.5 82.4285 5.5 66C5.5 49.566 5.5715 47.509 5.863 41.063C6.1545 34.617 7.183 30.217 8.6735 26.367C10.1955 22.3304 12.5792 18.6742 15.6585 15.653C18.6782 12.5758 22.3326 10.1939 26.367 8.6735C30.217 7.183 34.617 6.16 41.052 5.863H41.0575ZM90.4475 16.753C84.0675 16.4615 82.1535 16.401 66 16.401C49.8465 16.401 47.9325 16.4615 41.5525 16.753C35.651 17.0225 32.45 18.007 30.316 18.8375C27.4945 19.9375 25.476 21.241 23.3585 23.3585C21.3512 25.3113 19.8065 27.6886 18.8375 30.316C18.007 32.45 17.0225 35.651 16.753 41.5525C16.4615 47.9325 16.401 49.8465 16.401 66C16.401 82.1535 16.4615 84.0675 16.753 90.4475C17.0225 96.349 18.007 99.55 18.8375 101.684C19.8055 104.308 21.351 106.689 23.3585 108.642C25.311 110.649 27.6925 112.195 30.316 113.163C32.45 113.993 35.651 114.978 41.5525 115.247C47.9325 115.539 49.841 115.599 66 115.599C82.159 115.599 84.0675 115.539 90.4475 115.247C96.349 114.978 99.55 113.993 101.684 113.163C104.506 112.063 106.524 110.759 108.642 108.642C110.649 106.689 112.195 104.308 113.163 101.684C113.993 99.55 114.978 96.349 115.247 90.4475C115.539 84.0675 115.599 82.1535 115.599 66C115.599 49.8465 115.539 47.9325 115.247 41.5525C114.978 35.651 113.993 32.45 113.163 30.316C112.063 27.4945 110.759 25.476 108.642 23.3585C106.689 21.3514 104.311 19.8067 101.684 18.8375C99.55 18.007 96.349 17.0225 90.4475 16.753V16.753ZM58.2725 84.6505C62.5881 86.447 67.3936 86.6894 71.8681 85.3365C76.3426 83.9835 80.2087 81.119 82.8059 77.2323C85.4031 73.3456 86.5703 68.6778 86.1083 64.0261C85.6462 59.3744 83.5835 55.0274 80.2725 51.7275C78.1618 49.6181 75.6097 48.003 72.7998 46.9983C69.99 45.9936 66.9924 45.6245 64.0227 45.9174C61.0531 46.2103 58.1853 47.158 55.6259 48.6922C53.0665 50.2265 50.8791 52.3091 49.2212 54.7902C47.5632 57.2713 46.476 60.0891 46.0378 63.0408C45.5996 65.9925 45.8213 69.0046 46.687 71.8603C47.5526 74.7161 49.0406 77.3444 51.044 79.556C53.0473 81.7676 55.516 83.5075 58.2725 84.6505ZM44.011 44.011C46.8986 41.1234 50.3268 38.8328 54.0996 37.27C57.8725 35.7072 61.9163 34.9029 66 34.9029C70.0837 34.9029 74.1275 35.7072 77.9004 37.27C81.6732 38.8328 85.1014 41.1234 87.989 44.011C90.8766 46.8986 93.1672 50.3268 94.73 54.0996C96.2928 57.8725 97.0971 61.9163 97.0971 66C97.0971 70.0837 96.2928 74.1275 94.73 77.9004C93.1672 81.6732 90.8766 85.1014 87.989 87.989C82.1572 93.8208 74.2475 97.0971 66 97.0971C57.7525 97.0971 49.8428 93.8208 44.011 87.989C38.1792 82.1572 34.9029 74.2475 34.9029 66C34.9029 57.7525 38.1792 49.8428 44.011 44.011V44.011ZM103.994 39.534C104.71 38.859 105.282 38.0472 105.679 37.1469C106.075 36.2465 106.286 35.2757 106.301 34.2921C106.315 33.3085 106.132 32.332 105.762 31.4205C105.392 30.5089 104.843 29.6808 104.148 28.9852C103.452 28.2896 102.624 27.7407 101.713 27.3708C100.801 27.001 99.8245 26.8179 98.8409 26.8322C97.8573 26.8465 96.8865 27.0581 95.9861 27.4543C95.0858 27.8506 94.274 28.4234 93.599 29.139C92.2862 30.5307 91.5675 32.3792 91.5954 34.2921C91.6232 36.2051 92.3956 38.0318 93.7484 39.3846C95.1012 40.7374 96.9279 41.5098 98.8409 41.5376C100.754 41.5655 102.602 40.8468 103.994 39.534V39.534Z" fill="white"/>
</svg>
