<svg width="234" height="234" viewBox="0 0 234 234" fill="none" xmlns="http://www.w3.org/2000/svg">
<path fill-rule="evenodd" clip-rule="evenodd" d="M72.7838 10.3935C84.2205 9.867 87.867 9.75 117 9.75C146.133 9.75 149.78 9.87675 161.207 10.3935C172.634 10.9102 180.433 12.7335 187.258 15.3758C194.405 18.0765 200.889 22.2982 206.251 27.7582C211.711 33.111 215.924 39.585 218.615 46.7415C221.267 53.5665 223.08 61.3665 223.607 72.774C224.133 84.2303 224.25 87.8768 224.25 117C224.25 146.133 224.123 149.779 223.607 161.216C223.09 172.624 221.267 180.424 218.615 187.249C215.923 194.406 211.704 200.891 206.251 206.251C200.889 211.711 194.405 215.924 187.258 218.615C180.433 221.267 172.633 223.08 161.226 223.607C149.779 224.133 146.133 224.25 117 224.25C87.867 224.25 84.2205 224.123 72.7838 223.607C61.3763 223.09 53.5763 221.267 46.7513 218.615C39.594 215.923 33.1092 211.704 27.7485 206.251C22.2922 200.896 18.0698 194.414 15.3758 187.258C12.7335 180.433 10.92 172.633 10.3935 161.226C9.867 149.77 9.75 146.123 9.75 117C9.75 87.867 9.87675 84.2205 10.3935 72.7935C10.9102 61.3665 12.7335 53.5665 15.3758 46.7415C18.0738 39.5858 22.2994 33.1043 27.7582 27.7485C33.1114 22.2934 39.5896 18.0711 46.7415 15.3758C53.5665 12.7335 61.3665 10.92 72.774 10.3935H72.7838ZM160.339 29.6985C149.029 29.1818 145.636 29.0745 117 29.0745C88.3642 29.0745 84.9712 29.1818 73.6612 29.6985C63.1995 30.1763 57.525 31.9215 53.742 33.3937C48.7403 35.3437 45.162 37.6545 41.4083 41.4083C37.8499 44.87 35.1115 49.0843 33.3937 53.742C31.9215 57.525 30.1763 63.1995 29.6985 73.6612C29.1818 84.9712 29.0745 88.3642 29.0745 117C29.0745 145.636 29.1818 149.029 29.6985 160.339C30.1763 170.8 31.9215 176.475 33.3937 180.258C35.1097 184.909 37.8495 189.131 41.4083 192.592C44.8695 196.151 49.0913 198.89 53.742 200.606C57.525 202.079 63.1995 203.824 73.6612 204.302C84.9712 204.818 88.3545 204.925 117 204.925C145.645 204.925 149.029 204.818 160.339 204.302C170.8 203.824 176.475 202.079 180.258 200.606C185.26 198.656 188.838 196.346 192.592 192.592C196.151 189.131 198.89 184.909 200.606 180.258C202.079 176.475 203.824 170.8 204.302 160.339C204.818 149.029 204.925 145.636 204.925 117C204.925 88.3642 204.818 84.9712 204.302 73.6612C203.824 63.1995 202.079 57.525 200.606 53.742C198.656 48.7403 196.346 45.162 192.592 41.4083C189.13 37.8502 184.916 35.1118 180.258 33.3937C176.475 31.9215 170.8 30.1763 160.339 29.6985V29.6985ZM103.301 150.062C110.952 153.247 119.47 153.677 127.403 151.278C135.335 148.88 142.188 143.802 146.792 136.912C151.396 130.022 153.466 121.747 152.646 113.501C151.827 105.255 148.171 97.5485 142.301 91.6987C138.56 87.9594 134.035 85.0962 129.054 83.3152C124.073 81.5342 118.759 80.8798 113.495 81.399C108.23 81.9182 103.147 83.5982 98.6096 86.318C94.0724 89.0378 90.1948 92.7298 87.2557 97.128C84.3166 101.526 82.3893 106.522 81.6125 111.754C80.8357 116.987 81.2287 122.326 82.7633 127.389C84.2978 132.451 86.9357 137.11 90.487 141.031C94.0384 144.952 98.4148 148.036 103.301 150.062ZM78.0195 78.0195C83.1385 72.9005 89.2156 68.8399 95.9039 66.0695C102.592 63.2991 109.761 61.8732 117 61.8732C124.239 61.8732 131.408 63.2991 138.096 66.0695C144.784 68.8399 150.862 72.9005 155.981 78.0195C161.099 83.1385 165.16 89.2156 167.93 95.9039C170.701 102.592 172.127 109.761 172.127 117C172.127 124.239 170.701 131.408 167.93 138.096C165.16 144.784 161.099 150.862 155.981 155.981C145.642 166.319 131.621 172.127 117 172.127C102.379 172.127 88.3578 166.319 78.0195 155.981C67.6812 145.642 61.8733 131.621 61.8733 117C61.8733 102.379 67.6812 88.3578 78.0195 78.0195V78.0195ZM184.353 70.083C185.622 68.8864 186.637 67.4474 187.339 65.8512C188.042 64.2551 188.417 62.5342 188.442 60.7906C188.468 59.0469 188.143 57.3158 187.487 55.6999C186.832 54.084 185.859 52.616 184.626 51.3829C183.393 50.1498 181.925 49.1766 180.309 48.521C178.693 47.8655 176.962 47.5408 175.218 47.5662C173.474 47.5916 171.753 47.9666 170.157 48.669C168.561 49.3715 167.122 50.387 165.925 51.6555C163.598 54.1225 162.324 57.3994 162.374 60.7906C162.423 64.1817 163.792 67.4201 166.19 69.8182C168.588 72.2164 171.827 73.5855 175.218 73.6349C178.609 73.6844 181.886 72.4102 184.353 70.083V70.083Z" fill="url(#paint0_linear_2_184)"/>
<defs>
<linearGradient id="paint0_linear_2_184" x1="47.8636" y1="31.9091" x2="164.864" y2="205.636" gradientUnits="userSpaceOnUse">
<stop stop-color="#7443B6"/>
<stop offset="1" stop-color="#EB6478"/>
</linearGradient>
</defs>
</svg>
