<svg width="55" height="55" viewBox="0 0 55 55" fill="none" xmlns="http://www.w3.org/2000/svg">
<g clip-path="url(#clip0_25_210)">
<path d="M46.8945 32.6406L36.3828 36.2422V40.8008L46.8945 45.0039V32.6406Z" fill="#1A6CA2"/>
<path d="M14.0703 47.5625C12.7383 47.5625 11.6562 46.4805 11.6562 45.1484V25.4727C11.6562 24.1406 12.7383 23.0586 14.0703 23.0586H37.7422C39.0742 23.0586 40.1563 24.1406 40.1563 25.4727V45.1484C40.1563 46.4805 39.0742 47.5625 37.7422 47.5625H14.0703V47.5625Z" fill="#38A7F2"/>
<path d="M36.6289 61.6523C37.3047 61.6523 37.8555 62.2031 37.8555 62.8789V81.1953C37.8555 81.8711 37.3047 82.4219 36.6289 82.4219H14.5898C13.9141 82.4219 13.3633 81.8711 13.3633 81.1953V62.8789C13.3633 62.2031 13.9141 61.6523 14.5898 61.6523H36.6289V61.6523ZM36.6289 59.6094H14.5898C12.7852 59.6094 11.3203 61.0742 11.3203 62.8789V81.1953C11.3203 83 12.7852 84.4648 14.5898 84.4648H36.625C38.4297 84.4648 39.8945 83 39.8945 81.1953V62.8789C39.8984 61.0742 38.4336 59.6094 36.6289 59.6094V59.6094ZM48.4219 31.5234C49.2969 31.5234 50.0078 32.2344 50.0078 33.1094V44.5352C50.0078 45.4102 49.2969 46.1211 48.4219 46.1211C47.5469 46.1211 46.8359 45.4102 46.8359 44.5352V33.1094C46.8359 32.2344 47.5469 31.5234 48.4219 31.5234V31.5234ZM34.6133 49.2656H17.1992C16.8118 49.2656 16.4402 49.1117 16.1662 48.8377C15.8922 48.5637 15.7383 48.1922 15.7383 47.8047C15.7383 47.4172 15.8922 47.0456 16.1662 46.7716C16.4402 46.4977 16.8118 46.3437 17.1992 46.3437H34.6172C35.0047 46.3437 35.3762 46.4977 35.6502 46.7716C35.9242 47.0456 36.0781 47.4172 36.0781 47.8047C36.0771 48.1925 35.9223 48.5641 35.6477 48.838C35.3731 49.1118 35.0011 49.2656 34.6133 49.2656V49.2656ZM11.3906 28.3789H25.9492C27.5664 28.3789 28.875 29.6875 28.875 31.3047V38.9766C28.875 40.5938 27.5664 41.9023 25.9492 41.9023H11.3906C9.77344 41.9023 8.46484 40.5938 8.46484 38.9766V31.3047C8.46484 29.6875 9.77344 28.3789 11.3906 28.3789Z" fill="#C439AB"/>
<path d="M34.1484 31.1445H37.6484C39.0312 31.1445 40.1562 32.1719 40.1562 33.4414V45.2695C40.1562 46.5391 39.0352 47.5664 37.6484 47.5664H34.1484C32.7656 47.5664 31.6406 46.5391 31.6406 45.2695V33.4414C31.6406 32.1719 32.7617 31.1445 34.1484 31.1445V31.1445Z" fill="#1A6CA2"/>
<path d="M35.8359 44.2578C36.5177 44.2578 37.0703 43.7052 37.0703 43.0234C37.0703 42.3417 36.5177 41.7891 35.8359 41.7891C35.1542 41.7891 34.6016 42.3417 34.6016 43.0234C34.6016 43.7052 35.1542 44.2578 35.8359 44.2578Z" fill="#ED6C30"/>
<path d="M35.8359 40.1641C36.5177 40.1641 37.0703 39.6114 37.0703 38.9297C37.0703 38.248 36.5177 37.6953 35.8359 37.6953C35.1542 37.6953 34.6016 38.248 34.6016 38.9297C34.6016 39.6114 35.1542 40.1641 35.8359 40.1641Z" fill="#40C0E7"/>
<path d="M39.9141 5.17188C33.0117 5.17188 27.4141 10.7695 27.4141 17.6719C27.4141 24.5742 33.0117 30.1719 39.9141 30.1719C46.8164 30.1719 52.4141 24.5742 52.4141 17.6719C52.4141 10.7695 46.8164 5.17188 39.9141 5.17188V5.17188ZM39.9141 27.207C34.6445 27.207 30.375 22.9375 30.375 17.668C30.375 12.3984 34.6484 8.13281 39.9141 8.13281C45.1797 8.13281 49.4531 12.4023 49.4531 17.6719C49.4531 22.9414 45.1836 27.207 39.9141 27.207Z" fill="#1A6CA2"/>
<path d="M39.9141 27.207C45.1823 27.207 49.4531 22.9362 49.4531 17.668C49.4531 12.3997 45.1823 8.12891 39.9141 8.12891C34.6458 8.12891 30.375 12.3997 30.375 17.668C30.375 22.9362 34.6458 27.207 39.9141 27.207Z" fill="white"/>
<path d="M39.9141 13.3555C37.5313 13.3555 35.5977 15.2891 35.5977 17.6719C35.5977 20.0547 37.5313 21.9844 39.9141 21.9844C42.2969 21.9844 44.2305 20.0508 44.2305 17.668C44.2305 15.2852 42.2969 13.3555 39.9141 13.3555ZM39.9141 19.5977C38.8516 19.5977 37.9883 18.7344 37.9883 17.6719C37.9883 16.6094 38.8516 15.7461 39.9141 15.7461C40.9766 15.7461 41.8398 16.6094 41.8398 17.6719C41.8398 18.7344 40.9805 19.5977 39.9141 19.5977Z" fill="#1A6CA2"/>
<path d="M39.9141 19.5938C40.9776 19.5938 41.8398 18.7315 41.8398 17.668C41.8398 16.6044 40.9776 15.7422 39.9141 15.7422C38.8505 15.7422 37.9883 16.6044 37.9883 17.668C37.9883 18.7315 38.8505 19.5938 39.9141 19.5938Z" fill="white"/>
<path d="M37.9883 6.82422L39.1992 14.5313H40.7422L41.8438 6.82422H37.9883ZM49.6133 12.4609L42.6758 16.0352L43.1602 17.4961L50.8242 16.1211L49.6133 12.4609ZM47.8594 25.3242L42.3242 19.8203L41.082 20.7344L44.75 27.6016L47.8594 25.3242ZM35.0703 27.6055L38.6094 20.6523L37.3633 19.75L31.9492 25.3437L35.0703 27.6055ZM28.9727 16.1602L36.6797 17.3789L37.1523 15.9141L30.1602 12.4922L28.9727 16.1602ZM13.6055 11.8828C8.02734 11.8828 3.50391 16.4062 3.50391 21.9844C3.50391 27.5625 8.02734 32.0859 13.6055 32.0859C19.1836 32.0859 23.707 27.5625 23.707 21.9844C23.707 16.4062 19.1875 11.8828 13.6055 11.8828ZM13.6055 29.6953C9.34766 29.6953 5.89453 26.2422 5.89453 21.9844C5.89453 17.7266 9.34766 14.2734 13.6055 14.2734C17.8633 14.2734 21.3164 17.7266 21.3164 21.9844C21.3164 26.2422 17.8633 29.6953 13.6055 29.6953Z" fill="#1A6CA2"/>
<path d="M13.6055 29.6953C17.8641 29.6953 21.3164 26.243 21.3164 21.9844C21.3164 17.7257 17.8641 14.2734 13.6055 14.2734C9.34684 14.2734 5.89453 17.7257 5.89453 21.9844C5.89453 26.243 9.34684 29.6953 13.6055 29.6953Z" fill="white"/>
<path d="M13.6055 18.4961C11.6797 18.4961 10.1172 20.0586 10.1172 21.9844C10.1172 23.9102 11.6797 25.4727 13.6055 25.4727C15.5313 25.4727 17.0938 23.9102 17.0938 21.9844C17.0938 20.0586 15.5352 18.4961 13.6055 18.4961ZM13.6055 23.543C12.7461 23.543 12.0469 22.8438 12.0469 21.9844C12.0469 21.125 12.7461 20.4258 13.6055 20.4258C14.4648 20.4258 15.1641 21.125 15.1641 21.9844C15.1641 22.8438 14.4688 23.543 13.6055 23.543Z" fill="#1A6CA2"/>
<path d="M13.6055 23.543C14.4663 23.543 15.1641 22.8452 15.1641 21.9844C15.1641 21.1236 14.4663 20.4258 13.6055 20.4258C12.7447 20.4258 12.0469 21.1236 12.0469 21.9844C12.0469 22.8452 12.7447 23.543 13.6055 23.543Z" fill="white"/>
<path d="M12.0508 13.2188L13.0273 19.4492H14.2734L15.1641 13.2188H12.0508ZM21.4453 17.7734L15.8359 20.6641L16.2305 21.8437L22.4219 20.7344L21.4453 17.7734ZM20.0273 28.1719L15.5547 23.7227L14.5508 24.4609L17.5156 30.0117L20.0273 28.1719ZM9.69141 30.0156L12.5508 24.3945L11.543 23.6641L7.16797 28.1875L9.69141 30.0156ZM4.76172 20.7656L10.9922 21.75L11.375 20.5664L5.72266 17.8008L4.76172 20.7656Z" fill="#1A6CA2"/>
</g>
<defs>
<clipPath id="clip0_25_210">
<rect width="50" height="50" fill="white" transform="translate(3 2)"/>
</clipPath>
</defs>
</svg>
