<svg width="55" height="55" viewBox="0 0 55 55" fill="none" xmlns="http://www.w3.org/2000/svg">
<path d="M8.7505 8.77351H47.2495V46.7148H8.7505V8.77351ZM7 48.4883H49V7H7V48.4883ZM35.3155 24.0208C33.9325 24.0208 33.46 24.7305 33.46 25.3156C33.46 25.9539 33.775 26.3977 35.6305 27.3718C38.3785 28.7198 39.2305 30.0131 39.2305 31.9112C39.2305 34.7485 37.096 36.2728 34.2085 36.2728C32.9693 36.3193 31.7376 36.0585 30.6205 35.5129C30.4975 35.4597 30.481 35.3716 30.481 35.2287V32.6194C30.481 32.4416 30.568 32.3884 30.691 32.4781C31.7401 33.1615 32.9612 33.5245 34.2085 33.5236C35.5915 33.5236 36.169 32.9385 36.169 32.1407C36.169 31.5024 35.767 30.9355 33.9985 30.0131C31.513 28.8079 30.481 27.5815 30.481 25.5451C30.481 23.2579 32.248 21.3613 35.311 21.3613C36.3772 21.3149 37.4418 21.4839 38.443 21.8583C38.5007 21.8962 38.5473 21.949 38.5781 22.0112C38.609 22.0734 38.6229 22.1429 38.6185 22.2124V24.6439C38.6185 24.7853 38.5315 24.8749 38.356 24.8217C37.4307 24.2821 36.3785 24.0064 35.311 24.0239L35.3155 24.0208ZM20.2645 26.1302C20.6665 26.1652 20.9815 26.1652 21.682 26.1652C23.7295 26.1652 25.654 25.4387 25.654 22.6197C25.654 20.3674 24.271 19.2337 21.9445 19.2337C21.244 19.2337 20.5795 19.2687 20.2645 19.2869V26.1302ZM17.149 16.708C17.149 16.5833 17.3935 16.4952 17.5345 16.4952C19.0387 16.4329 20.544 16.4035 22.0495 16.4071C26.8975 16.4071 28.7875 19.1015 28.7875 22.5421C28.7875 27.0451 25.567 28.9782 21.613 28.9782C20.9485 28.9782 20.7205 28.9432 20.248 28.9432V35.7515C20.248 35.8929 20.1955 35.9643 20.038 35.9643H17.3605C17.221 35.9643 17.1505 35.9111 17.1505 35.7515V16.7156L17.149 16.708Z" fill="#38A7F2"/>
</svg>
