<svg width="55" height="55" viewBox="0 0 55 55" fill="none" xmlns="http://www.w3.org/2000/svg">
<path d="M14.6094 33.0859C13.1646 33.0859 11.7524 33.5144 10.5511 34.317C9.34986 35.1197 8.4136 36.2605 7.86072 37.5952C7.30785 38.93 7.16319 40.3987 7.44504 41.8157C7.7269 43.2327 8.4226 44.5342 9.44418 45.5558C10.4658 46.5774 11.7673 47.2731 13.1843 47.555C14.6013 47.8368 16.07 47.6922 17.4048 47.1393C18.7395 46.5864 19.8804 45.6501 20.683 44.4489C21.4857 43.2476 21.9141 41.8354 21.9141 40.3906C21.9084 38.4551 21.137 36.6004 19.7683 35.2317C18.3996 33.863 16.545 33.0916 14.6094 33.0859V33.0859ZM14.6094 45.1172C13.6745 45.1172 12.7607 44.84 11.9834 44.3206C11.2062 43.8013 10.6003 43.0631 10.2426 42.1994C9.88486 41.3357 9.79126 40.3854 9.97363 39.4685C10.156 38.5517 10.6062 37.7095 11.2672 37.0484C11.9282 36.3874 12.7704 35.9373 13.6873 35.7549C14.6041 35.5725 15.5545 35.6661 16.4182 36.0239C17.2818 36.3816 18.02 36.9874 18.5394 37.7647C19.0587 38.542 19.3359 39.4558 19.3359 40.3906C19.3303 41.6425 18.8305 42.8414 17.9453 43.7266C17.0601 44.6118 15.8612 45.1115 14.6094 45.1172V45.1172ZM7.69141 23.1602L11.0645 19.7656L7.69141 16.3711C7.45209 16.1318 7.31764 15.8072 7.31764 15.4688C7.31764 15.1303 7.45209 14.8057 7.69141 14.5664C7.93072 14.3271 8.2553 14.1926 8.59375 14.1926C8.93219 14.1926 9.25678 14.3271 9.49609 14.5664L12.8906 17.9395L16.2852 14.5664C16.5245 14.3271 16.8491 14.1926 17.1875 14.1926C17.5259 14.1926 17.8505 14.3271 18.0898 14.5664C18.3292 14.8057 18.4636 15.1303 18.4636 15.4688C18.4636 15.8072 18.3292 16.1318 18.0898 16.3711L14.7168 19.7656L18.0898 23.1602C18.3292 23.3995 18.4636 23.7241 18.4636 24.0625C18.4636 24.4009 18.3292 24.7255 18.0898 24.9648C17.8505 25.2042 17.5259 25.3386 17.1875 25.3386C16.8491 25.3386 16.5245 25.2042 16.2852 24.9648L12.8906 21.5918L9.49609 24.9648C9.25678 25.2042 8.93219 25.3386 8.59375 25.3386C8.2553 25.3386 7.93072 25.2042 7.69141 24.9648C7.45209 24.7255 7.31764 24.4009 7.31764 24.0625C7.31764 23.7241 7.45209 23.3995 7.69141 23.1602V23.1602ZM47.3086 43.7852C47.5479 44.0245 47.6824 44.3491 47.6824 44.6875C47.6824 45.026 47.5479 45.3505 47.3086 45.5899C47.0693 45.8292 46.7447 45.9636 46.4063 45.9636C46.0678 45.9636 45.7432 45.8292 45.5039 45.5899L42.1094 42.2168L38.7148 45.5899C38.4755 45.8292 38.1509 45.9636 37.8125 45.9636C37.4741 45.9636 37.1495 45.8292 36.9102 45.5899C36.6708 45.3505 36.5364 45.026 36.5364 44.6875C36.5364 44.3491 36.6708 44.0245 36.9102 43.7852L40.2832 40.3906L36.9102 36.9961C36.7917 36.8776 36.6977 36.7369 36.6335 36.5821C36.5694 36.4273 36.5364 36.2613 36.5364 36.0938C36.5364 35.9262 36.5694 35.7602 36.6335 35.6054C36.6977 35.4506 36.7917 35.3099 36.9102 35.1914C37.0287 35.0729 37.1693 34.9789 37.3242 34.9148C37.479 34.8507 37.6449 34.8176 37.8125 34.8176C37.9801 34.8176 38.146 34.8507 38.3008 34.9148C38.4557 34.9789 38.5963 35.0729 38.7148 35.1914L42.1094 38.5645L45.5039 35.1914C45.7432 34.9521 46.0678 34.8176 46.4063 34.8176C46.7447 34.8176 47.0693 34.9521 47.3086 35.1914C47.5479 35.4307 47.6824 35.7553 47.6824 36.0938C47.6824 36.4322 47.5479 36.7568 47.3086 36.9961L43.9355 40.3906L47.3086 43.7852ZM37.4902 24.127C36.2012 28.7891 32.2266 32.8066 27.8223 33.9023L27.5 33.9453C27.1876 33.9435 26.8865 33.8282 26.6527 33.621C26.4189 33.4138 26.2683 33.1287 26.2289 32.8188C26.1895 32.5089 26.264 32.1953 26.4385 31.9362C26.6131 31.677 26.8757 31.4901 27.1777 31.4102C30.6797 30.5293 33.9883 27.1777 35.0195 23.4395C35.7285 20.8613 35.75 16.9512 31.7539 12.9336L30.5078 11.709V17.1875C30.5078 17.5294 30.372 17.8573 30.1303 18.099C29.8885 18.3408 29.5606 18.4766 29.2188 18.4766C28.8769 18.4766 28.549 18.3408 28.3072 18.099C28.0655 17.8573 27.9297 17.5294 27.9297 17.1875V8.59375C27.9297 8.25187 28.0655 7.92399 28.3072 7.68225C28.549 7.4405 28.8769 7.30469 29.2188 7.30469H37.8125C38.1544 7.30469 38.4823 7.4405 38.724 7.68225C38.9658 7.92399 39.1016 8.25187 39.1016 8.59375C39.1016 8.93563 38.9658 9.26351 38.724 9.50526C38.4823 9.747 38.1544 9.88281 37.8125 9.88281H32.334L33.5586 11.1289C37.3828 14.9316 38.7793 19.5508 37.4902 24.127V24.127Z" fill="#3AA8F2"/>
</svg>
