<svg width="55" height="55" viewBox="0 0 55 55" fill="none" xmlns="http://www.w3.org/2000/svg">
<g clip-path="url(#clip0_25_209)">
<path d="M48.3045 10.6188L39.2738 6.27075C38.7638 6.0252 38.1901 5.94424 37.632 6.03909C37.074 6.13393 36.5592 6.39987 36.1589 6.80012L6.59571 33.7548C5.80062 34.4799 5.80165 35.7317 6.59778 36.4556L9.01262 38.6508C9.32809 38.9376 9.73399 39.1051 10.16 39.124C10.5859 39.143 11.0051 39.0123 11.3448 38.7546L46.9456 11.7469C48.14 10.8409 49.8555 11.6927 49.8555 13.1918V13.087C49.8555 12.5713 49.7099 12.0661 49.4355 11.6295C49.1611 11.1929 48.7691 10.8425 48.3045 10.6188V10.6188Z" fill="#0065A9"/>
<path d="M48.3045 44.9839L39.2738 49.332C38.7638 49.5775 38.1901 49.6585 37.632 49.5636C37.074 49.4688 36.5592 49.2029 36.1589 48.8027L6.59572 21.848C5.80062 21.123 5.80166 19.8711 6.59778 19.1473L9.01263 16.952C9.32812 16.6652 9.73403 16.4978 10.16 16.4789C10.5859 16.4599 11.0051 16.5906 11.3448 16.8483L46.9456 43.8559C48.14 44.7619 49.8555 43.9101 49.8555 42.4108V42.5158C49.8554 43.0315 49.7099 43.5367 49.4355 43.9733C49.1611 44.4099 48.7691 44.7602 48.3045 44.9839V44.9839Z" fill="#007ACC"/>
<path d="M39.2454 49.3356C38.7353 49.581 38.1615 49.6618 37.6034 49.5669C37.0453 49.4719 36.5305 49.206 36.1302 48.8057C37.141 49.8163 38.8695 49.1005 38.8695 47.6708V7.93761C38.8695 6.50795 37.141 5.79209 36.1302 6.80289C36.5305 6.40261 37.0453 6.13659 37.6034 6.04163C38.1615 5.94667 38.7353 6.02746 39.2454 6.27283L48.2746 10.6149C48.7395 10.8385 49.1318 11.1888 49.4064 11.6255C49.6809 12.0623 49.8266 12.5677 49.8266 13.0835V42.5252C49.8266 43.578 49.2233 44.5377 48.2746 44.9939L39.2454 49.3358V49.3356Z" fill="#1F9CF0"/>
<path d="M37.0798 49.4165C37.4286 49.5524 37.8016 49.6152 38.1756 49.6008C38.5497 49.5864 38.9167 49.4953 39.254 49.3329L48.2775 44.9908C48.7422 44.7672 49.1344 44.4168 49.4089 43.9801C49.6833 43.5433 49.8289 43.038 49.8288 42.5222V13.0807C49.8289 12.5649 49.6833 12.0596 49.4089 11.6229C49.1345 11.1862 48.7424 10.8358 48.2776 10.6121L39.2539 6.26982C38.744 6.02451 38.1705 5.94375 37.6127 6.03871C37.0549 6.13368 36.5405 6.39967 36.1405 6.79988L18.8661 22.5601L11.3414 16.8484C11.0019 16.5907 10.583 16.46 10.1573 16.479C9.7316 16.4979 9.32595 16.6653 9.01074 16.952L6.59744 19.1474C5.80166 19.8711 5.8008 21.1231 6.59538 21.8481L13.121 27.8015L6.59538 33.7547C5.8008 34.4798 5.80166 35.7316 6.59744 36.4555L9.01074 38.6507C9.32593 38.9375 9.73157 39.1049 10.1573 39.1239C10.583 39.1428 11.0019 39.0122 11.3414 38.7545L18.8661 33.0426L36.1405 48.8027C36.4077 49.0702 36.7275 49.2792 37.0798 49.4165V49.4165ZM38.8783 17.8516L25.7708 27.8015L38.8783 37.751V17.8518V17.8516Z" fill="url(#paint0_linear_25_209)" fill-opacity="0.25"/>
</g>
<defs>
<linearGradient id="paint0_linear_25_209" x1="27.9144" y1="6" x2="27.9144" y2="49.6028" gradientUnits="userSpaceOnUse">
<stop stop-color="white"/>
<stop offset="1" stop-color="white" stop-opacity="0"/>
</linearGradient>
<clipPath id="clip0_25_209">
<rect width="44" height="43.6562" fill="white" transform="translate(6 6)"/>
</clipPath>
</defs>
</svg>
